<svg width="95" height="93" viewBox="0 0 95 93" fill="none" xmlns="http://www.w3.org/2000/svg">
<ellipse cx="47.5" cy="46.5" rx="47.5" ry="46.5" fill="#0D8CE9"/>
<g filter="url(#filter0_d_1_14)">
<path d="M42.6679 67.0205C42.6666 68.0618 42.9181 69.0868 43.399 70H25.1597C24.0576 69.9964 23.0014 69.5393 22.2221 68.7285C21.4427 67.9178 21.0034 66.8189 21 65.6722V59.1797C21.0081 56.3127 22.1064 53.5654 24.0551 51.5381C26.004 49.5109 28.6445 48.3684 31.4 48.3602H49.3909C49.7717 49.6855 50.3924 50.9227 51.2197 52.0054C48.8285 52.4326 46.659 53.725 45.0944 55.6542C43.5296 57.5835 42.6703 60.0257 42.6678 62.5499L42.6679 67.0205ZM40.7597 45.1145C38.6576 45.1145 36.6028 44.4661 34.8554 43.2511C33.1075 42.0362 31.7453 40.3094 30.9409 38.2889C30.1365 36.2685 29.926 34.0453 30.3362 31.9001C30.7462 29.7553 31.7585 27.7851 33.2448 26.2386C34.731 24.6922 36.6247 23.6391 38.6865 23.2126C40.748 22.7858 42.8849 23.0047 44.8267 23.8417C46.7688 24.6786 48.4286 26.0958 49.5963 27.9142C50.7641 29.7324 51.3874 31.8702 51.3874 34.0571C51.3874 36.9894 50.2676 39.8017 48.2745 41.8755C46.2815 43.9491 43.5783 45.1145 40.7597 45.1145ZM72.9994 67.0205C72.9971 67.81 72.6947 68.5665 72.1581 69.1247C71.6215 69.683 70.8944 69.9976 70.1355 70H48.6515C47.8926 69.9977 47.1656 69.683 46.6288 69.1247C46.0922 68.5665 45.7897 67.81 45.7875 67.0205V62.5501C45.7931 60.576 46.5494 58.6844 47.8911 57.2884C49.2326 55.8925 51.0508 55.1057 52.9485 55.1H65.8391C67.7364 55.1056 69.5546 55.8924 70.8965 57.2884C72.2383 58.6841 72.9943 60.5757 73 62.5501L72.9994 67.0205ZM66.7108 45.2508C66.7106 47.27 65.9397 49.2063 64.5673 50.6337C63.1949 52.0611 61.3335 52.8632 59.3928 52.8632C57.4521 52.863 55.5909 52.0607 54.2189 50.633C52.8469 49.2052 52.0759 47.2687 52.0759 45.2495C52.0761 43.2303 52.8473 41.294 54.2196 39.8666C55.592 38.4392 57.4534 37.6369 59.3941 37.6371C61.3348 37.6371 63.1962 38.4394 64.5685 39.8672C65.9407 41.295 66.711 43.2317 66.7108 45.2508Z" fill="white"/>
</g>
<defs>
<filter id="filter0_d_1_14" x="17" y="23" width="60" height="55" filterUnits="userSpaceOnUse" color-interpolation-filters="sRGB">
<feFlood flood-opacity="0" result="BackgroundImageFix"/>
<feColorMatrix in="SourceAlpha" type="matrix" values="0 0 0 0 0 0 0 0 0 0 0 0 0 0 0 0 0 0 127 0" result="hardAlpha"/>
<feOffset dy="4"/>
<feGaussianBlur stdDeviation="2"/>
<feComposite in2="hardAlpha" operator="out"/>
<feColorMatrix type="matrix" values="0 0 0 0 0 0 0 0 0 0 0 0 0 0 0 0 0 0 0.25 0"/>
<feBlend mode="normal" in2="BackgroundImageFix" result="effect1_dropShadow_1_14"/>
<feBlend mode="normal" in="SourceGraphic" in2="effect1_dropShadow_1_14" result="shape"/>
</filter>
</defs>
</svg>
